 
--------------------------------------------------------------------------------

INFOFormat;Avi

File Size:641mb

Video: ID : 0
Format : MPEG-4 Visual
Format profile : Advanced Simple@L5
Format settings, BVOP : Yes
Format settings, QPel : No
Format settings, GMC : No warppoints
Format settings, Matrix : Default (H.263)
Muxing mode : Packed bitstream
Codec ID : XVID
Codec ID/Hint : XviD
Duration : 1h 30mn
Bit rate : 888 Kbps
Width : 700 pixels
Height : 386 pixels
Display aspect ratio : 16:9
Frame rate : 29.970 fps
Color space : YUV
Chroma subsampling : 4:2:0
Bit depth : 8 bits
Scan type : Progressive
Bits/(Pixel*Frame) : 0.097
Stream size : 512 MiB (80%)
Writing library : XviD 1.2.1 (UTC 2008-12-04)

Audio: ID : 1
Format : AC-3
Format/Info : Audio Coding 3
Mode extension : CM (complete main)
Codec ID : 2000
Duration : 1h 30mn
Bit rate mode : Constant
Bit rate : 192 Kbps
Channel(s) : 2 channels
Channel positions : Front: L R
Sampling rate : 48.0 KHz
Bit depth : 16 bits
Stream size : 125 MiB (19%)
Alignment : Aligned on interleaves
Interleave, duration : 480 ms (14.38 video frames)
Interleave, preload duration : 960 ms

Duration:1:30

Release Date:2010

Language:English 
--------------------------------------------------------------------------------





Plot: sadistic voyeuristic killer is stalking the city. 3 curious teenagers while spying on their neighbors believe they've discovered his identity. But when your holiday high rise apartment is filled with hidden CCTV cameras. WHO is really watching WHO?

Cast: Margot Robbie ...
Tristan Waters
Christian Radford Christian Radford ...
Troy Waters
James Dean James Dean ...
Ricky Dickson
Natalie Blair Natalie Blair ...
The Mystery Woman
Aash Aaron Aash Aaron ...
Detective Al Stewart
Matt Flannagan Matt Flannagan ...
William Waters
Ozzie Devrish Ozzie Devrish ...
The Pimp

--------------------------------------------------------------------------------
